<svg viewBox="0 0 16 15" fill="none" xmlns="http://www.w3.org/2000/svg">
<path d="M1 8L12.86 8L9.23 12.36C9.06026 12.5642 8.9786 12.8275 9.00298 13.0919C9.02736 13.3563 9.15578 13.6003 9.36 13.77C9.56422 13.9397 9.8275 14.0214 10.0919 13.997C10.3563 13.9726 10.6003 13.8442 10.77 13.64L15.77 7.64C15.8036 7.59228 15.8337 7.54214 15.86 7.49C15.86 7.44 15.86 7.41 15.93 7.36C15.9753 7.24534 15.9991 7.12329 16 7C15.9991 6.87671 15.9753 6.75466 15.93 6.64C15.93 6.59 15.93 6.56 15.86 6.51C15.8337 6.45786 15.8036 6.40772 15.77 6.36L10.77 0.359999C10.676 0.247117 10.5582 0.156336 10.4252 0.0941148C10.2921 0.0318932 10.1469 -0.000239884 10 -1.47821e-06C9.76635 -0.000458309 9.53991 0.0809168 9.36 0.229998C9.25874 0.313947 9.17504 0.417049 9.11369 0.533396C9.05234 0.649743 9.01454 0.777049 9.00246 0.908026C8.99039 1.039 9.00427 1.17108 9.04332 1.29668C9.08236 1.42228 9.1458 1.53895 9.23 1.64L12.86 6L1 6C0.734784 6 0.480429 6.10535 0.292893 6.29289C0.105357 6.48043 6.35255e-07 6.73478 6.12069e-07 7C5.88883e-07 7.26521 0.105357 7.51957 0.292893 7.7071C0.480429 7.89464 0.734784 8 1 8Z" fill="white"/>
</svg>
