<svg width="9.6" height="18" viewBox="0 0 8 15" fill="none" xmlns="http://www.w3.org/2000/svg">
<path d="M5 13V4.99997H1V6.99997H3V13H0V15H8V13H5Z" fill="var(--text-lightcolor)" stroke="var(--background-color)"
          stroke-width="0.8"/>
<path d="M3.16665 0.252795C3.41332 0.0879731 3.70333 0 4 0C4.39783 0 4.77936 0.158035 5.06066 0.43934C5.34196 0.720644 5.5 1.10218 5.5 1.5C5.5 1.79667 5.41203 2.08668 5.2472 2.33335C5.08238 2.58003 4.84811 2.77229 4.57403 2.88582C4.29994 2.99935 3.99834 3.02906 3.70737 2.97118C3.41639 2.9133 3.14912 2.77044 2.93934 2.56066C2.72956 2.35088 2.5867 2.08361 2.52882 1.79264C2.47094 1.50166 2.50065 1.20006 2.61418 0.925975C2.72771 0.651886 2.91997 0.417617 3.16665 0.252795Z" fill="var(--text-lightcolor)" stroke="var(--background-color)"
          stroke-width="0.8"/>
</svg>
