
<svg  width="19" height="19" version="1.1" id="Ebene_1" xmlns="http://www.w3.org/2000/svg" xmlns:xlink="http://www.w3.org/1999/xlink" x="0px" y="0px"
	 viewBox="0 0 9.6 18" style="enable-background:new 0 0 9.6 18;" xml:space="preserve" fill="var(--text-middlecolor)">
<polygon class="st0" points="1.6,6.4 1.6,8 4,8 4,16 0.4,16 0.4,17.6 9.2,17.6 9.2,16 5.6,16 5.6,6.4 "/>
<path class="st0" d="M3.5,1.3C3.4,1.5,3.4,1.8,3.4,2.1c0.1,0.3,0.2,0.5,0.4,0.7C4,3,4.3,3.1,4.5,3.2c0.3,0.1,0.6,0,0.8-0.1
	C5.6,3,5.8,2.8,6,2.6c0.2-0.2,0.2-0.5,0.2-0.8c0-0.4-0.1-0.7-0.4-1C5.3,0.3,4.6,0.3,4,0.6C3.8,0.8,3.6,1,3.5,1.3z"/>
</svg>
