<svg width="25" height="28" viewBox="0 0 25 28" fill="none" xmlns="http://www.w3.org/2000/svg">
<path d="M25 22V20H22.899C22.77 19.374 22.5215 18.7788 22.167 18.247L23.657 16.757L22.243 15.343L20.753 16.833C20.2212 16.4785 19.626 16.23 19 16.101V14H17V16.101C16.374 16.23 15.7788 16.4785 15.247 16.833L13.757 15.343L12.343 16.757L13.833 18.247C13.4785 18.7788 13.23 19.374 13.101 20H11V22H13.101C13.23 22.626 13.4785 23.2212 13.833 23.753L12.343 25.243L13.757 26.657L15.247 25.167C15.7788 25.5215 16.374 25.77 17 25.899V28H19V25.899C19.626 25.77 20.2212 25.5215 20.753 25.167L22.243 26.657L23.657 25.243L22.167 23.753C22.5215 23.2212 22.77 22.626 22.899 22H25ZM18 24C17.4067 24 16.8266 23.8241 16.3333 23.4944C15.8399 23.1648 15.4554 22.6962 15.2284 22.1481C15.0013 21.5999 14.9419 20.9967 15.0576 20.4147C15.1734 19.8328 15.4591 19.2982 15.8787 18.8787C16.2982 18.4591 16.8328 18.1734 17.4147 18.0576C17.9967 17.9419 18.5999 18.0013 19.1481 18.2284C19.6962 18.4554 20.1648 18.8399 20.4944 19.3333C20.8241 19.8266 21 20.4067 21 21C20.9992 21.7954 20.6829 22.558 20.1204 23.1204C19.558 23.6829 18.7954 23.9992 18 24Z" fill="black"/>
<path d="M20 3H17V2C16.9984 1.47005 16.7872 0.962265 16.4125 0.587535C16.0377 0.212805 15.5299 0.00158273 15 0H7C6.47005 0.00158273 5.96227 0.212805 5.58753 0.587535C5.2128 0.962265 5.00158 1.47005 5 2V3H2C1.47005 3.00158 0.962265 3.2128 0.587535 3.58753C0.212805 3.96227 0.00158273 4.47005 0 5V26C0.00158273 26.5299 0.212805 27.0377 0.587535 27.4125C0.962265 27.7872 1.47005 27.9984 2 28H9V26H2V5H5V8H17V5H20V11H22V5C21.9984 4.47005 21.7872 3.96227 21.4125 3.58753C21.0377 3.2128 20.5299 3.00158 20 3ZM15 6H7V2H15V6Z" fill="black"/>
</svg>
