<svg width="32" height="32" viewBox="0 0 28 28" fill="none" xmlns="http://www.w3.org/2000/svg">
<path d="M24.9998 14.76V13.23L26.9198 11.55C27.2737 11.2381 27.5059 10.8111 27.5755 10.3444C27.645 9.87781 27.5474 9.40163 27.2998 9.00004L24.9398 5.00004C24.7644 4.6963 24.5122 4.44402 24.2086 4.2685C23.905 4.09298 23.5605 4.0004 23.2098 4.00004C22.9924 3.99838 22.7762 4.03215 22.5698 4.10004L20.1398 4.92004C19.7202 4.64125 19.2826 4.39069 18.8298 4.17004L18.3198 1.65004C18.2283 1.18965 17.9779 0.776081 17.6122 0.481743C17.2466 0.187404 16.7891 0.0310467 16.3198 0.0400403H11.6398C11.1705 0.0310467 10.7129 0.187404 10.3473 0.481743C9.98167 0.776081 9.73121 1.18965 9.63976 1.65004L9.12976 4.17004C8.6737 4.39064 8.23273 4.64119 7.80976 4.92004L5.42976 4.06004C5.22106 4.00566 5.00494 3.9854 4.78976 4.00004C4.43904 4.0004 4.09457 4.09298 3.79093 4.2685C3.48728 4.44402 3.23513 4.6963 3.05976 5.00004L0.699764 9.00004C0.466351 9.40103 0.379616 9.8707 0.454414 10.3286C0.529211 10.7865 0.760888 11.2042 1.10976 11.51L2.99976 13.24V14.77L1.10976 16.45C0.751033 16.758 0.51302 17.1832 0.437963 17.65C0.362906 18.1168 0.45566 18.5951 0.699764 19L3.05976 23C3.23513 23.3038 3.48728 23.5561 3.79093 23.7316C4.09457 23.9071 4.43904 23.9997 4.78976 24C5.00711 24.0017 5.22328 23.9679 5.42976 23.9L7.85976 23.08C8.2793 23.3588 8.71694 23.6094 9.16976 23.83L9.67976 26.35C9.77121 26.8104 10.0217 27.224 10.3873 27.5183C10.7529 27.8127 11.2105 27.969 11.6798 27.96H16.3998C16.8691 27.969 17.3266 27.8127 17.6922 27.5183C18.0579 27.224 18.3083 26.8104 18.3998 26.35L18.9098 23.83C19.3658 23.6094 19.8068 23.3589 20.2298 23.08L22.6498 23.9C22.8562 23.9679 23.0724 24.0017 23.2898 24C23.6405 23.9997 23.985 23.9071 24.2886 23.7316C24.5922 23.5561 24.8444 23.3038 25.0198 23L27.2998 19C27.5332 18.5991 27.6199 18.1294 27.5451 17.6715C27.4703 17.2136 27.2386 16.7959 26.8898 16.49L24.9998 14.76ZM23.2098 22L19.7798 20.84C18.9768 21.5201 18.0592 22.0518 17.0698 22.41L16.3598 26H11.6398L10.9298 22.45C9.94819 22.0816 9.03548 21.5509 8.22976 20.88L4.78976 22L2.42976 18L5.14976 15.6C4.96486 14.5649 4.96486 13.5052 5.14976 12.47L2.42976 10L4.78976 6.00004L8.21976 7.16004C9.0227 6.47993 9.94037 5.94829 10.9298 5.59004L11.6398 2.00004H16.3598L17.0698 5.55004C18.0513 5.91846 18.964 6.44918 19.7698 7.12004L23.2098 6.00004L25.5698 10L22.8498 12.4C23.0347 13.4352 23.0347 14.4949 22.8498 15.53L25.5698 18L23.2098 22Z" fill="var(--background-color)"/>
<path d="M13.9998 20C12.8131 20 11.653 19.6481 10.6663 18.9889C9.67965 18.3296 8.91061 17.3925 8.45649 16.2961C8.00236 15.1998 7.88354 13.9934 8.11505 12.8295C8.34656 11.6656 8.91801 10.5965 9.75712 9.7574C10.5962 8.91829 11.6653 8.34684 12.8292 8.11533C13.9931 7.88382 15.1995 8.00264 16.2959 8.45676C17.3922 8.91089 18.3293 9.67992 18.9886 10.6666C19.6479 11.6533 19.9998 12.8134 19.9998 14C20.0078 14.7902 19.8581 15.574 19.5594 16.3056C19.2607 17.0372 18.819 17.7018 18.2603 18.2606C17.7015 18.8193 17.0369 19.261 16.3053 19.5597C15.5737 19.8583 14.7899 20.0081 13.9998 20ZM13.9998 10C13.4711 9.98773 12.9454 10.0828 12.4546 10.2794C11.9637 10.4761 11.5178 10.7703 11.1439 11.1442C10.77 11.5181 10.4758 11.964 10.2792 12.4549C10.0825 12.9457 9.98745 13.4714 9.99976 14C9.98745 14.5287 10.0825 15.0544 10.2792 15.5452C10.4758 16.0361 10.77 16.482 11.1439 16.8559C11.5178 17.2298 11.9637 17.524 12.4546 17.7206C12.9454 17.9173 13.4711 18.0124 13.9998 18C14.5284 18.0124 15.0541 17.9173 15.5449 17.7206C16.0358 17.524 16.4817 17.2298 16.8556 16.8559C17.2295 16.482 17.5237 16.0361 17.7204 15.5452C17.917 15.0544 18.0121 14.5287 17.9998 14C18.0121 13.4714 17.917 12.9457 17.7204 12.4549C17.5237 11.964 17.2295 11.5181 16.8556 11.1442C16.4817 10.7703 16.0358 10.4761 15.5449 10.2794C15.0541 10.0828 14.5284 9.98773 13.9998 10Z" fill="var(--background-color)"/>
</svg>
