<svg width="17" height="15" viewBox="0 0 17 15" fill="none" xmlns="http://www.w3.org/2000/svg">
<path d="M2.33519 7.22086H16.2472C16.4316 7.22086 16.6086 7.29414 16.739 7.42459C16.8695 7.55504 16.9427 7.73197 16.9427 7.91645C16.9427 8.10094 16.8695 8.27787 16.739 8.40832C16.6086 8.53877 16.4316 8.61205 16.2472 8.61205H2.33519C2.1507 8.61205 1.97378 8.53877 1.84333 8.40832C1.71288 8.27787 1.63959 8.10094 1.63959 7.91645C1.63959 7.73197 1.71288 7.55504 1.84333 7.42459C1.97378 7.29414 2.1507 7.22086 2.33519 7.22086Z" fill="black"/>
<path d="M2.62317 7.91645L8.39246 13.6844C8.52307 13.815 8.59645 13.9921 8.59645 14.1768C8.59645 14.3616 8.52307 14.5387 8.39246 14.6693C8.26184 14.7999 8.08469 14.8733 7.89997 14.8733C7.71526 14.8733 7.5381 14.7999 7.40749 14.6693L1.14711 8.40894C1.08233 8.34432 1.03093 8.26756 0.995867 8.18305C0.9608 8.09855 0.942749 8.00795 0.942749 7.91645C0.942749 7.82496 0.9608 7.73436 0.995867 7.64985C1.03093 7.56535 1.08233 7.48859 1.14711 7.42397L7.40749 1.16359C7.5381 1.03297 7.71526 0.959595 7.89997 0.959595C8.08469 0.959595 8.26184 1.03297 8.39246 1.16359C8.52307 1.2942 8.59645 1.47135 8.59645 1.65607C8.59645 1.84079 8.52307 2.01794 8.39246 2.14856L2.62317 7.91645Z" fill="black"/>
</svg>
