<svg width="178" height="320" viewBox="0 0 178 320" fill="none" xmlns="http://www.w3.org/2000/svg">
<path d="M29 124H93V296" stroke="black" stroke-width="40" stroke-linecap="round" stroke-linejoin="round"/>
<path d="M20 300H158" stroke="black" stroke-width="40" stroke-miterlimit="10" stroke-linecap="round"/>
<path d="M89 64C82.671 64 76.4841 62.1232 71.2218 58.607C65.9594 55.0908 61.8579 50.0931 59.4359 44.2459C57.0139 38.3986 56.3802 31.9645 57.6149 25.7571C58.8496 19.5497 61.8973 13.8479 66.3726 9.3726C70.8479 4.89732 76.5497 1.84961 82.7571 0.614885C88.9645 -0.619842 95.3987 0.013865 101.246 2.43587C107.093 4.85787 112.091 8.9594 115.607 14.2218C119.123 19.4841 121 25.671 121 32C121 40.4869 117.629 48.6263 111.627 54.6274C105.626 60.6286 97.4869 64 89 64Z" fill="black"/>
</svg>
